<svg width="38" height="33" viewBox="0 0 38 33" fill="none" xmlns="http://www.w3.org/2000/svg">
  <path d="M38 0.304135L37.041 7.18112C35.123 7.02026 33.5647 7.34199 32.3659 8.14632C31.1672 8.91043 30.3281 10.0365 29.8486 11.5245C29.409 12.9723 29.3291 14.6614 29.6088 16.5917H38V33H21.6972V16.5917C21.6972 10.8006 23.0358 6.41702 25.7129 3.44101C28.3901 0.465003 32.4858 -0.580622 38 0.304135ZM16.3028 0.304135L15.3438 7.18112C13.4259 7.02026 11.8675 7.34199 10.6688 8.14632C9.47003 8.91043 8.63092 10.0365 8.15142 11.5245C7.71188 12.9723 7.63197 14.6614 7.91167 16.5917H16.3028V33H0V16.5917C0 10.8006 1.33859 6.41702 4.01577 3.44101C6.69295 0.465003 10.7886 -0.580622 16.3028 0.304135Z" fill="#073611"/>
</svg>
